<?xml version="1.0" encoding="UTF-8"?> <!-- Generator: Adobe Illustrator 16.0.0, SVG Export Plug-In . SVG Version: 6.00 Build 0) --> <svg xmlns="http://www.w3.org/2000/svg" xmlns:xlink="http://www.w3.org/1999/xlink" id="Layer_1" x="0px" y="0px" width="119.771px" height="59.503px" viewBox="0 0 119.771 59.503" xml:space="preserve"> <polygon fill="#009D4D" points="24.809,30.852 25.972,24.255 13.956,24.255 15.612,14.864 29.867,14.864 31.03,8.268 8.726,8.268 1.689,48.18 23.97,48.18 25.133,41.583 10.901,41.583 12.793,30.852 "></polygon> <g> <path fill="#009D4D" d="M26.246,48.18h8.049l0.061-0.345c-2.759-3.274-4.848-7.134-6.046-11.362L26.246,48.18z"></path> <path fill="#009D4D" d="M86.505,8.268h-5.483c1.708,1.996,3.165,4.213,4.319,6.603L86.505,8.268z"></path> <path fill="#009D4D" d="M78.863,8.268h-4.265L63.874,36.441h-0.112L63.027,8.268h-1.996l-3.419,18.264l1.006,21.647h6.261 l12.717-31.862h0.112L72.09,48.18h6.616c0.322-0.338,0.638-0.683,0.944-1.035l5.185-29.401 C83.468,14.198,81.426,10.986,78.863,8.268"></path> <polygon fill="#EB2027" points="106.295,26.659 111.63,32.802 112.754,26.659 "></polygon> <path fill="#009D4D" d="M29.056,32.245c0.715,5.022,2.721,9.634,5.671,13.488l2.693-15.274h9.733L44.029,48.18h7.378l7.315-39.911 h-7.656l-2.691,15.26h-9.733l2.691-15.26h-4.67h-2.157h-1.222l-0.353,2.003l-0.743,4.211L29.056,32.245z"></path> <path fill="#009D4D" d="M113.486,20.119c0.743-4.062,0.309-7.183-1.303-9.363c-1.612-2.18-4.698-3.27-9.259-3.27 c-2.668,0-4.97,0.429-6.904,1.285c-1.936,0.858-3.6,2.134-4.992,3.829c-1.393,1.697-2.543,3.811-3.45,6.345 c-0.31,0.862-0.602,1.773-0.875,2.73c-0.381,1.32-0.727,2.729-1.041,4.229c-0.127,0.61-0.249,1.234-0.366,1.873 c-0.634,3.466-1.038,6.512-1.208,9.139c-0.02,0.288-0.033,0.571-0.042,0.849c-0.048,1.366,0.014,2.61,0.184,3.733 c0.112,0.731,0.269,1.413,0.474,2.042c0.579,1.789,1.595,3.112,3.043,3.969c1.446,0.857,3.446,1.286,5.999,1.286 c1.972,0,3.722-0.327,5.253-0.979c1.529-0.65,2.939-1.76,4.231-3.324h0.116l-0.675,3.688h6.146l1.819-9.949l-0.073,0.377 l0.073-0.377l0.994-5.429l-5.335-6.143h-6.133h-0.92l-1.085,5.925h5.51l-0.746,4.081c-0.198,1.081-0.544,2.021-1.039,2.823 c-0.494,0.801-1.05,1.463-1.667,1.983c-0.617,0.522-1.25,0.914-1.896,1.174c-0.647,0.262-1.223,0.392-1.725,0.392 c-1.198,0-2.107-0.363-2.729-1.09c-0.619-0.728-1.01-1.77-1.167-3.131c-0.156-1.359-0.136-3.009,0.064-4.947 c0.2-1.938,0.518-4.098,0.954-6.483c0.914-4.994,2.012-8.571,3.297-10.733c1.285-2.16,2.932-3.242,4.942-3.242 c0.85,0,1.535,0.215,2.057,0.643c0.521,0.429,0.915,0.969,1.183,1.621c0.267,0.652,0.416,1.369,0.447,2.152 c0.031,0.783-0.021,1.547-0.158,2.292H113.486z"></path> <path fill="#EB2027" d="M77.598,2.279c0,1.259-1.021,2.279-2.279,2.279s-2.278-1.02-2.278-2.279C73.04,1.02,74.06,0,75.318,0 S77.598,1.02,77.598,2.279"></path> <polygon fill="#414042" points="1.607,57.252 2.014,54.939 3.618,54.939 3.771,54.066 2.167,54.066 2.449,52.464 4.085,52.464 4.24,51.578 1.152,51.578 0,58.133 3.111,58.133 3.266,57.252 "></polygon> <polygon fill="#414042" points="4.644,51.578 3.491,58.133 4.856,58.133 6.009,51.578 "></polygon> <path fill="#414042" d="M9.059,53.012c-0.234-0.13-0.56-0.196-0.97-0.196c-0.586,0-1.058,0.134-1.402,0.396 c-0.343,0.264-0.554,0.604-0.625,1.013l-0.08,0.453h1.334l0.095-0.543c0.03-0.167,0.085-0.289,0.166-0.363 c0.082-0.077,0.185-0.115,0.305-0.115c0.128,0,0.223,0.04,0.28,0.12c0.056,0.078,0.069,0.201,0.038,0.375 c-0.024,0.132-0.07,0.245-0.139,0.336c-0.069,0.088-0.176,0.175-0.318,0.258c-0.071,0.045-0.28,0.156-0.655,0.347 c-0.356,0.18-0.6,0.311-0.725,0.391c-0.189,0.118-0.329,0.228-0.416,0.325c-0.086,0.097-0.153,0.206-0.199,0.322 c-0.048,0.121-0.115,0.426-0.199,0.905c-0.057,0.327-0.063,0.574-0.015,0.733c0.047,0.156,0.141,0.277,0.288,0.373 c0.148,0.095,0.323,0.144,0.52,0.144c0.208,0,0.401-0.053,0.571-0.156c0.173-0.105,0.357-0.284,0.546-0.533l0.139-0.186 l-0.08,0.724h1.319l0.691-3.932c0.053-0.299,0.045-0.543-0.023-0.727C9.439,53.296,9.289,53.141,9.059,53.012 M7.734,56.724 c-0.03,0.168-0.086,0.293-0.167,0.373c-0.083,0.082-0.19,0.124-0.316,0.124c-0.129,0-0.2-0.061-0.236-0.109 c-0.051-0.069-0.067-0.164-0.046-0.282l0.086-0.489c0.035-0.197,0.088-0.337,0.164-0.428c0.072-0.086,0.278-0.233,0.629-0.451 l0.121-0.073L7.734,56.724z"></path> <path fill="#414042" d="M12.829,52.815c-0.27,0-0.516,0.07-0.731,0.21c-0.164,0.107-0.315,0.276-0.451,0.501l-0.176,0.293 l0.161-0.917h-1.324l-0.92,5.23h1.356l0.672-3.824c0.024-0.137,0.075-0.24,0.151-0.307c0.076-0.068,0.169-0.104,0.276-0.104 c0.123,0,0.213,0.041,0.269,0.121c0.054,0.077,0.066,0.2,0.035,0.375l-0.657,3.738h1.333l0.702-3.989 c0.078-0.447,0.079-0.764,0.002-0.938C13.414,52.942,13.185,52.815,12.829,52.815"></path> <path fill="#414042" d="M16.65,51.578l-0.27,1.533l-0.113,0.735l-0.078-0.295c-0.07-0.264-0.173-0.456-0.306-0.567 c-0.132-0.112-0.334-0.168-0.6-0.168c-0.296,0-0.548,0.095-0.748,0.282c-0.202,0.189-0.343,0.5-0.417,0.925l-0.501,2.847 c-0.09,0.511-0.06,0.881,0.088,1.096c0.148,0.214,0.376,0.319,0.698,0.319c0.237,0,0.44-0.053,0.606-0.158 c0.167-0.104,0.336-0.304,0.5-0.59l0.181-0.314l-0.161,0.91h1.302l1.153-6.555H16.65z M16.149,54.298l-0.431,2.453 c-0.023,0.127-0.069,0.222-0.139,0.283c-0.072,0.062-0.163,0.095-0.273,0.095c-0.122,0-0.211-0.038-0.263-0.112 c-0.052-0.072-0.062-0.188-0.032-0.361l0.396-2.25c0.04-0.228,0.075-0.294,0.102-0.327c0.086-0.107,0.199-0.161,0.334-0.161 c0.114,0,0.2,0.034,0.255,0.101C16.153,54.084,16.17,54.178,16.149,54.298"></path> <polygon fill="#414042" points="17.902,54.731 17.73,55.71 19.68,55.71 19.852,54.731 "></polygon> <polygon fill="#414042" points="23.287,51.578 22.859,54.012 21.948,54.012 22.376,51.578 20.956,51.578 19.803,58.133 21.255,58.133 21.817,54.938 22.705,54.938 22.143,58.133 23.573,58.133 24.725,51.578 "></polygon> <path fill="#414042" d="M27.665,52.969c-0.226-0.102-0.545-0.153-0.947-0.153c-0.402,0-0.751,0.076-1.038,0.224 c-0.285,0.149-0.51,0.353-0.668,0.604c-0.118,0.187-0.206,0.447-0.264,0.773l-0.429,2.443c-0.022,0.126-0.025,0.283-0.008,0.469 c0.017,0.18,0.067,0.328,0.148,0.441c0.115,0.161,0.283,0.288,0.499,0.377c0.22,0.091,0.497,0.138,0.821,0.138 c0.305,0,0.584-0.042,0.83-0.125c0.244-0.083,0.453-0.201,0.624-0.351c0.171-0.148,0.297-0.311,0.374-0.48 c0.08-0.173,0.134-0.341,0.162-0.5l0.447-2.543c0.061-0.346,0.039-0.63-0.065-0.847C28.046,53.223,27.887,53.067,27.665,52.969 M26.915,54.102l-0.508,2.892c-0.022,0.125-0.076,0.226-0.161,0.298c-0.084,0.075-0.188,0.112-0.308,0.112 c-0.108,0-0.192-0.037-0.25-0.112c-0.055-0.071-0.071-0.18-0.046-0.319l0.502-2.86c0.027-0.152,0.081-0.264,0.16-0.335 c0.08-0.071,0.181-0.107,0.301-0.107c0.114,0,0.202,0.038,0.261,0.114C26.923,53.857,26.939,53.964,26.915,54.102"></path> <path fill="#414042" d="M31.1,52.916l-0.659,3.747c-0.03,0.171-0.079,0.287-0.148,0.354c-0.07,0.067-0.164,0.102-0.278,0.102 c-0.129,0-0.222-0.041-0.278-0.124c-0.054-0.08-0.065-0.202-0.035-0.372l0.652-3.707H29.02l-0.714,4.063 c-0.081,0.463-0.056,0.79,0.077,0.972c0.13,0.178,0.358,0.269,0.676,0.269c0.477,0,0.856-0.241,1.159-0.739l0.176-0.288 l-0.166,0.94h1.302l0.917-5.217H31.1z"></path> <path fill="#414042" d="M35.595,55.628c-0.102-0.111-0.321-0.285-0.653-0.519c-0.584-0.4-0.712-0.541-0.758-0.61 c-0.076-0.116-0.099-0.263-0.069-0.434c0.023-0.136,0.076-0.242,0.155-0.314c0.082-0.075,0.182-0.113,0.298-0.113 c0.122,0,0.215,0.043,0.276,0.129c0.06,0.086,0.075,0.205,0.046,0.367l-0.095,0.544h1.315l0.103-0.585 c0.037-0.231,0.023-0.446-0.044-0.639c-0.065-0.187-0.215-0.341-0.445-0.457c-0.235-0.12-0.558-0.182-0.957-0.182 c-0.316,0-0.606,0.039-0.861,0.117c-0.18,0.052-0.357,0.142-0.526,0.265c-0.169,0.122-0.301,0.253-0.391,0.389 c-0.129,0.184-0.221,0.426-0.273,0.722c-0.05,0.284-0.035,0.512,0.046,0.678c0.083,0.169,0.295,0.374,0.632,0.611 c0.468,0.326,0.708,0.496,0.755,0.534c0.125,0.096,0.203,0.184,0.237,0.268c0.052,0.129,0.06,0.289,0.024,0.489 c-0.036,0.208-0.094,0.349-0.176,0.43c-0.084,0.084-0.192,0.127-0.322,0.127c-0.119,0-0.207-0.037-0.262-0.109 c-0.055-0.071-0.07-0.177-0.046-0.312l0.149-0.848h-1.333l-0.107,0.607c-0.058,0.326-0.068,0.463-0.065,0.519 c0.006,0.161,0.037,0.301,0.094,0.414c0.056,0.114,0.144,0.211,0.268,0.3c0.124,0.088,0.282,0.155,0.469,0.201 c0.191,0.046,0.403,0.068,0.631,0.068c0.597,0,1.076-0.142,1.424-0.422c0.346-0.277,0.568-0.683,0.659-1.203 c0.044-0.248,0.044-0.473-0.001-0.667C35.76,55.857,35.692,55.734,35.595,55.628"></path> <path fill="#414042" d="M39.738,53.034c-0.231-0.145-0.579-0.219-1.037-0.219c-0.546,0-0.998,0.142-1.343,0.421 c-0.345,0.279-0.561,0.655-0.643,1.117l-0.412,2.346c-0.043,0.246-0.06,0.434-0.05,0.558c0.017,0.199,0.065,0.363,0.142,0.489 c0.104,0.165,0.264,0.299,0.472,0.393c0.213,0.097,0.504,0.146,0.864,0.146c0.592,0,1.057-0.131,1.385-0.392 c0.325-0.259,0.535-0.644,0.623-1.142l0.101-0.575h-1.343l-0.139,0.795c-0.026,0.146-0.077,0.253-0.155,0.325 c-0.08,0.07-0.176,0.107-0.286,0.107c-0.12,0-0.209-0.042-0.262-0.125c-0.053-0.08-0.06-0.211-0.025-0.412l0.212-1.208h2.089 l0.19-1.084c0.081-0.459,0.099-0.783,0.052-0.963C40.111,53.372,39.964,53.179,39.738,53.034 M38.872,54.052l-0.144,0.816h-0.746 l0.148-0.839c0.02-0.119,0.067-0.209,0.137-0.269c0.071-0.062,0.167-0.091,0.286-0.091c0.125,0,0.216,0.031,0.271,0.095 C38.877,53.829,38.894,53.927,38.872,54.052"></path> <polygon fill="#414042" points="46.972,51.578 45.261,56.774 45.516,51.578 43.36,51.578 42.207,58.133 43.326,58.133 44.319,52.483 44.446,52.496 44.34,58.133 45.597,58.133 47.558,52.474 47.68,52.506 46.691,58.133 47.919,58.133 49.072,51.578 "></polygon> <path fill="#414042" d="M52.127,53.012c-0.234-0.13-0.561-0.196-0.971-0.196c-0.585,0-1.057,0.134-1.402,0.396 c-0.343,0.264-0.553,0.604-0.625,1.013l-0.08,0.453h1.334l0.095-0.543c0.03-0.167,0.086-0.289,0.167-0.363 c0.082-0.077,0.184-0.115,0.304-0.115c0.129,0,0.223,0.04,0.28,0.12c0.056,0.077,0.069,0.2,0.038,0.375 c-0.023,0.132-0.07,0.245-0.139,0.336c-0.069,0.088-0.175,0.175-0.317,0.258c-0.071,0.045-0.28,0.156-0.656,0.347 c-0.355,0.179-0.599,0.311-0.724,0.391c-0.19,0.119-0.33,0.228-0.417,0.325c-0.086,0.097-0.152,0.206-0.198,0.322 c-0.048,0.121-0.115,0.426-0.2,0.905c-0.057,0.327-0.063,0.574-0.014,0.733c0.046,0.156,0.14,0.277,0.288,0.373 c0.147,0.095,0.322,0.144,0.519,0.144c0.209,0,0.401-0.053,0.572-0.156c0.173-0.105,0.356-0.284,0.545-0.533l0.139-0.186 l-0.08,0.724h1.32l0.691-3.932c0.053-0.298,0.045-0.543-0.024-0.727C52.507,53.296,52.356,53.141,52.127,53.012 M50.801,56.724 c-0.03,0.168-0.085,0.293-0.167,0.373c-0.083,0.082-0.189,0.124-0.316,0.124c-0.129,0-0.2-0.061-0.236-0.109 c-0.051-0.069-0.066-0.163-0.046-0.282l0.086-0.489c0.035-0.197,0.089-0.337,0.164-0.428c0.072-0.086,0.278-0.233,0.629-0.451 l0.121-0.073L50.801,56.724z"></path> <path fill="#414042" d="M55.896,52.815c-0.27,0-0.515,0.07-0.731,0.21c-0.164,0.107-0.315,0.276-0.451,0.501l-0.176,0.294 l0.161-0.918h-1.324l-0.92,5.23h1.356l0.672-3.824c0.024-0.137,0.075-0.24,0.151-0.306c0.076-0.069,0.17-0.104,0.277-0.104 c0.121,0,0.212,0.041,0.268,0.121c0.055,0.077,0.067,0.2,0.035,0.375l-0.657,3.738h1.334l0.701-3.989 c0.079-0.447,0.079-0.763,0.002-0.939C56.481,52.942,56.253,52.815,55.896,52.815"></path> <path fill="#414042" d="M60.098,53.012c-0.234-0.13-0.561-0.196-0.971-0.196c-0.586,0-1.058,0.134-1.402,0.396 c-0.343,0.264-0.554,0.604-0.625,1.013l-0.08,0.453h1.334l0.095-0.543c0.03-0.167,0.085-0.289,0.167-0.363 c0.082-0.077,0.184-0.115,0.304-0.115c0.128,0,0.223,0.04,0.28,0.12c0.056,0.078,0.068,0.2,0.038,0.375 c-0.023,0.132-0.07,0.244-0.14,0.335c-0.068,0.09-0.176,0.176-0.318,0.259c-0.07,0.045-0.279,0.156-0.655,0.347 c-0.356,0.18-0.6,0.311-0.725,0.391c-0.189,0.119-0.329,0.228-0.416,0.325c-0.086,0.098-0.153,0.206-0.199,0.322 c-0.047,0.119-0.114,0.425-0.199,0.905c-0.057,0.327-0.063,0.574-0.015,0.733c0.047,0.156,0.141,0.277,0.289,0.373 c0.147,0.095,0.322,0.144,0.519,0.144c0.209,0,0.401-0.053,0.571-0.156c0.173-0.104,0.357-0.284,0.546-0.533l0.139-0.186 l-0.08,0.724h1.32l0.69-3.932c0.054-0.299,0.046-0.543-0.023-0.727C60.477,53.296,60.327,53.141,60.098,53.012 M58.772,56.724 c-0.03,0.168-0.085,0.293-0.167,0.373c-0.083,0.082-0.19,0.124-0.316,0.124c-0.13,0-0.2-0.061-0.236-0.109 c-0.051-0.069-0.067-0.164-0.046-0.282l0.086-0.489c0.035-0.197,0.088-0.337,0.164-0.428c0.072-0.086,0.278-0.233,0.629-0.451 l0.121-0.073L58.772,56.724z"></path> <path fill="#414042" d="M63.432,52.916l-0.149,0.851L63.2,53.549c-0.113-0.298-0.233-0.498-0.357-0.594 c-0.12-0.092-0.298-0.14-0.53-0.14c-0.259,0-0.481,0.07-0.663,0.207c-0.267,0.2-0.437,0.507-0.509,0.914l-0.399,2.272 c-0.077,0.438-0.04,0.766,0.108,0.97c0.15,0.204,0.377,0.304,0.697,0.304c0.173,0,0.329-0.029,0.462-0.088 c0.135-0.061,0.256-0.144,0.36-0.246c0.072-0.074,0.156-0.192,0.25-0.35l0.189-0.322l-0.319,1.619 c-0.024,0.137-0.076,0.241-0.153,0.312c-0.08,0.07-0.172,0.106-0.275,0.106c-0.116,0-0.204-0.043-0.264-0.126 c-0.057-0.081-0.07-0.201-0.041-0.367l0.039-0.218h-1.302l-0.066,0.373c-0.023,0.134-0.022,0.274,0.003,0.419 c0.025,0.143,0.082,0.263,0.175,0.368c0.092,0.106,0.248,0.195,0.464,0.267c0.221,0.073,0.49,0.108,0.802,0.108 c0.328,0,0.62-0.048,0.869-0.144c0.247-0.096,0.464-0.237,0.643-0.419c0.181-0.182,0.313-0.385,0.396-0.605 c0.051-0.131,0.103-0.349,0.155-0.648l0.81-4.605H63.432z M63.15,54.33l-0.292,1.659c-0.02,0.112-0.066,0.204-0.143,0.274 c-0.077,0.072-0.169,0.108-0.271,0.108c-0.122,0-0.214-0.035-0.271-0.104c-0.056-0.068-0.073-0.162-0.053-0.278l0.284-1.618 c0.028-0.162,0.077-0.272,0.151-0.34c0.073-0.068,0.168-0.102,0.281-0.102c0.111,0,0.197,0.035,0.256,0.107 S63.172,54.208,63.15,54.33"></path> <path fill="#414042" d="M66.835,56.176l-0.14,0.795c-0.026,0.146-0.077,0.253-0.155,0.325c-0.079,0.07-0.175,0.107-0.286,0.107 c-0.12,0-0.208-0.042-0.262-0.125c-0.052-0.079-0.06-0.214-0.026-0.412l0.213-1.208h2.09l0.189-1.084 c0.081-0.459,0.099-0.783,0.052-0.964c-0.062-0.239-0.21-0.433-0.436-0.576c-0.23-0.145-0.578-0.219-1.036-0.219 c-0.546,0-0.998,0.142-1.343,0.421c-0.345,0.28-0.562,0.655-0.644,1.117l-0.411,2.346c-0.043,0.245-0.061,0.434-0.051,0.558 c0.018,0.199,0.065,0.364,0.143,0.489c0.104,0.165,0.264,0.299,0.472,0.393c0.213,0.097,0.503,0.146,0.864,0.146 c0.591,0,1.057-0.131,1.385-0.392c0.325-0.259,0.535-0.644,0.622-1.142l0.101-0.575H66.835z M66.466,54.029 c0.021-0.118,0.066-0.208,0.138-0.27c0.07-0.061,0.167-0.09,0.286-0.09c0.125,0,0.216,0.031,0.27,0.095 c0.056,0.064,0.071,0.162,0.049,0.287l-0.144,0.816h-0.746L66.466,54.029z"></path> <path fill="#414042" d="M74.197,52.944c-0.127-0.085-0.292-0.129-0.49-0.129c-0.179,0-0.343,0.036-0.486,0.106 c-0.146,0.07-0.271,0.168-0.375,0.289c-0.073,0.084-0.157,0.216-0.251,0.392L72.5,53.781l-0.024-0.202 c-0.03-0.258-0.068-0.371-0.094-0.423c-0.05-0.107-0.127-0.19-0.231-0.251c-0.106-0.06-0.249-0.09-0.423-0.09 c-0.254,0-0.483,0.067-0.683,0.2c-0.201,0.134-0.364,0.331-0.487,0.585l-0.199,0.41l0.193-1.094h-1.271l-0.917,5.216h1.302 l0.669-3.801c0.025-0.147,0.071-0.25,0.143-0.315c0.073-0.067,0.16-0.1,0.262-0.1c0.115,0,0.203,0.04,0.26,0.117 c0.055,0.076,0.069,0.184,0.044,0.328l-0.663,3.771h1.302l0.657-3.737c0.032-0.18,0.081-0.302,0.149-0.371 c0.071-0.072,0.164-0.107,0.275-0.107c0.112,0,0.194,0.032,0.244,0.098c0.049,0.064,0.061,0.16,0.038,0.293l-0.673,3.825h1.302 l0.766-4.355c0.029-0.168,0.026-0.332-0.008-0.486C74.398,53.143,74.322,53.028,74.197,52.944"></path> <path fill="#414042" d="M76.716,56.176l-0.14,0.795c-0.025,0.146-0.076,0.253-0.155,0.325c-0.079,0.07-0.176,0.107-0.285,0.107 c-0.121,0-0.209-0.042-0.263-0.125c-0.051-0.079-0.06-0.214-0.025-0.412l0.214-1.208h2.088l0.19-1.084 c0.08-0.459,0.099-0.783,0.052-0.964c-0.062-0.239-0.21-0.433-0.436-0.576c-0.23-0.145-0.579-0.219-1.036-0.219 c-0.547,0-0.999,0.142-1.344,0.421s-0.562,0.655-0.643,1.117l-0.412,2.346c-0.043,0.246-0.06,0.434-0.05,0.558 c0.018,0.199,0.064,0.363,0.143,0.489c0.104,0.165,0.263,0.299,0.472,0.393c0.213,0.097,0.503,0.146,0.864,0.146 c0.591,0,1.057-0.131,1.384-0.392c0.326-0.259,0.535-0.644,0.623-1.142l0.101-0.575H76.716z M76.347,54.029 c0.021-0.119,0.068-0.209,0.139-0.27c0.069-0.061,0.166-0.09,0.285-0.09c0.125,0,0.217,0.031,0.271,0.095 c0.055,0.064,0.071,0.161,0.049,0.286l-0.144,0.817h-0.747L76.347,54.029z"></path> <path fill="#414042" d="M81.719,52.815c-0.27,0-0.516,0.07-0.73,0.21c-0.163,0.107-0.315,0.275-0.451,0.501l-0.176,0.292 l0.16-0.916h-1.324l-0.919,5.23h1.355l0.673-3.824c0.023-0.137,0.074-0.24,0.15-0.307c0.076-0.068,0.17-0.104,0.276-0.104 c0.122,0,0.213,0.041,0.269,0.121c0.055,0.077,0.066,0.2,0.035,0.375l-0.657,3.738h1.333l0.702-3.989 c0.078-0.447,0.079-0.764,0.002-0.938C82.304,52.942,82.075,52.815,81.719,52.815"></path> <path fill="#414042" d="M85.04,51.927h-1.333l-0.175,0.989h-0.507l-0.148,0.841h0.508L82.84,56.86 c-0.052,0.288-0.073,0.502-0.066,0.636c0.007,0.132,0.043,0.241,0.111,0.336c0.066,0.095,0.177,0.168,0.327,0.22 c0.157,0.054,0.453,0.082,0.882,0.082c0.129,0,0.3-0.002,0.51-0.009l0.147-0.841h-0.176c-0.163,0-0.277-0.042-0.341-0.123 s-0.077-0.215-0.043-0.41l0.527-2.994h0.653l0.147-0.841h-0.653L85.04,51.927z"></path> <path fill="#414042" d="M89.535,54.905l-0.16,0.913h0.562l-0.184,1.042c-0.026,0.149-0.086,0.266-0.181,0.351 c-0.096,0.086-0.212,0.129-0.346,0.129c-0.155,0-0.268-0.049-0.334-0.143c-0.064-0.091-0.076-0.244-0.036-0.469l0.672-3.822 c0.035-0.204,0.093-0.336,0.172-0.403c0.102-0.093,0.23-0.14,0.385-0.14c0.148,0,0.26,0.049,0.33,0.148 c0.067,0.096,0.083,0.246,0.045,0.457l-0.151,0.86h1.43l0.137-0.771c0.052-0.294,0.039-0.569-0.037-0.818 c-0.074-0.244-0.233-0.438-0.474-0.583c-0.243-0.146-0.605-0.22-1.076-0.22c-0.229,0-0.441,0.018-0.631,0.055 c-0.188,0.038-0.352,0.089-0.485,0.154c-0.213,0.103-0.405,0.238-0.57,0.4c-0.165,0.161-0.295,0.348-0.387,0.554 c-0.093,0.208-0.168,0.473-0.224,0.787l-0.546,3.102c-0.114,0.66-0.056,1.134,0.179,1.411c0.232,0.277,0.587,0.417,1.053,0.417 c0.256,0,0.508-0.045,0.749-0.136c0.241-0.089,0.453-0.217,0.632-0.379l0.097-0.088l0.03,0.42h0.797l0.568-3.229H89.535z"></path> <path fill="#414042" d="M95.02,52.815c-0.252,0-0.481,0.062-0.679,0.182c-0.199,0.119-0.383,0.312-0.543,0.571l-0.175,0.281 l0.165-0.933h-1.334l-0.917,5.216h1.365l0.661-3.76c0.027-0.153,0.078-0.267,0.152-0.335c0.074-0.072,0.167-0.107,0.271-0.107 c0.146,0,0.222,0.072,0.26,0.133c0.053,0.084,0.061,0.219,0.024,0.422l-0.208,1.184h1.334l0.302-1.717 c0.068-0.388,0.062-0.657-0.019-0.803C95.561,52.925,95.345,52.815,95.02,52.815"></path> <path fill="#414042" d="M99.069,52.969c-0.227-0.102-0.545-0.153-0.946-0.153c-0.402,0-0.751,0.076-1.037,0.224 c-0.286,0.149-0.512,0.353-0.669,0.604c-0.118,0.187-0.206,0.446-0.265,0.773l-0.43,2.443c-0.022,0.126-0.024,0.283-0.007,0.469 c0.017,0.18,0.065,0.328,0.147,0.441c0.114,0.161,0.282,0.288,0.499,0.377c0.221,0.091,0.496,0.138,0.821,0.138 c0.305,0,0.584-0.042,0.83-0.125c0.244-0.083,0.454-0.201,0.624-0.351c0.171-0.148,0.297-0.311,0.374-0.48 c0.08-0.172,0.134-0.341,0.162-0.5l0.447-2.543c0.06-0.347,0.037-0.631-0.066-0.847C99.452,53.226,99.289,53.066,99.069,52.969 M98.319,54.102l-0.509,2.892c-0.021,0.124-0.075,0.226-0.16,0.298c-0.084,0.075-0.188,0.112-0.308,0.112 c-0.109,0-0.193-0.037-0.25-0.112c-0.055-0.071-0.072-0.18-0.047-0.319l0.503-2.86c0.025-0.151,0.08-0.263,0.16-0.335 c0.08-0.071,0.181-0.107,0.301-0.107c0.114,0,0.202,0.038,0.26,0.114C98.327,53.856,98.344,53.964,98.319,54.102"></path> <path fill="#414042" d="M102.505,52.916l-0.659,3.747c-0.03,0.171-0.079,0.287-0.147,0.354c-0.07,0.067-0.164,0.102-0.278,0.102 c-0.129,0-0.224-0.042-0.278-0.124c-0.054-0.079-0.064-0.201-0.035-0.372l0.651-3.707h-1.333l-0.714,4.063 c-0.081,0.463-0.057,0.79,0.076,0.972c0.133,0.181,0.354,0.269,0.676,0.269c0.478,0,0.856-0.241,1.16-0.739l0.175-0.288 l-0.165,0.94h1.302l0.917-5.217H102.505z"></path> <path fill="#414042" d="M107.54,53.106c-0.055-0.083-0.127-0.151-0.225-0.208c-0.095-0.055-0.232-0.083-0.409-0.083 c-0.239,0-0.463,0.059-0.662,0.175c-0.2,0.116-0.384,0.31-0.546,0.578l-0.176,0.292l0.166-0.944h-1.301l-1.158,6.587h1.333 l0.427-2.427l0.037,0.511c0.016,0.205,0.09,0.368,0.229,0.497c0.139,0.128,0.318,0.191,0.551,0.191 c0.303,0,0.575-0.106,0.809-0.314c0.235-0.209,0.386-0.487,0.445-0.829l0.571-3.25c0.027-0.158,0.034-0.31,0.016-0.447 C107.629,53.301,107.594,53.19,107.54,53.106 M106.219,54.33l-0.422,2.401c-0.024,0.136-0.068,0.23-0.136,0.293 c-0.068,0.062-0.159,0.095-0.27,0.095c-0.13,0-0.225-0.036-0.283-0.107s-0.077-0.173-0.055-0.303l0.417-2.369 c0.024-0.135,0.075-0.24,0.153-0.312c0.079-0.073,0.18-0.111,0.299-0.111c0.112,0,0.196,0.037,0.251,0.108 C106.228,54.096,106.243,54.195,106.219,54.33"></path> <polygon points="116.155,8.589 116.155,8.376 117.672,8.376 117.672,8.589 117.039,8.589 117.039,10.271 116.787,10.271 116.787,8.589 "></polygon> <polygon points="118.229,8.376 118.828,9.969 119.427,8.376 119.771,8.376 119.771,10.271 119.533,10.271 119.533,8.695 119.527,8.695 118.935,10.271 118.72,10.271 118.128,8.695 118.125,8.695 118.125,10.271 117.884,10.271 117.884,8.376 "></polygon> </g> </svg> 